<?xml version="1.0" encoding="UTF-8"?><svg id="Layer_2" xmlns="http://www.w3.org/2000/svg" xmlns:xlink="http://www.w3.org/1999/xlink" viewBox="0 0 1052 1052"><defs><linearGradient id="linear-gradient" x1="526" y1="1052" x2="526" y2="0" gradientTransform="matrix(1, 0, 0, 1, 0, 0)" gradientUnits="userSpaceOnUse"><stop offset="0" stop-color="#75c7ff"/><stop offset="1" stop-color="#1775b9"/></linearGradient></defs><g id="Layer_1-2"><rect width="1052" height="1052" rx="174.24" ry="174.24" fill="url(#linear-gradient)"/><path d="M737.2,225.58h-88c-20.07,0-36.4,16.33-36.4,36.4s16.33,36.4,36.4,36.4h88c18.75,0,34,15.25,34,34v492.83c0,18.75-15.25,34-34,34H314.8c-18.75,0-34-15.25-34-34V332.39c0-18.75,15.25-34,34-34h88c20.07,0,36.4-16.33,36.4-36.4s-16.33-36.4-36.4-36.4h-88c-58.89,0-106.8,47.91-106.8,106.8v492.83c0,58.89,47.91,106.8,106.8,106.8h422.39c58.89,0,106.8-47.91,106.8-106.8V332.39c0-58.89-47.91-106.8-106.8-106.8Z" fill="#fff"/><path d="M663.46,227.5c-15.96-67.48-66.89-107.52-137.46-107.52s-121.5,40.04-137.46,107.52c-23.1,6.32-39.75,27.58-39.75,52.09v66.9c0,31.71,25.8,57.51,57.51,57.51h239.38c31.71,0,57.51-25.8,57.51-57.51v-66.9c0-24.51-16.64-45.76-39.73-52.09Zm-33.07,67.55v36.14h-208.79v-36.11c18.89-6.82,32.83-23.46,36.46-44.3,6.8-39.02,29.03-57.99,67.94-57.99s61.15,18.96,67.92,57.94c3.53,20.51,17.75,37.44,36.46,44.32Z" fill="#fff"/><path d="M669.81,503.93c-14.19-14.19-37.28-14.19-51.47,0l-142.93,142.93-41.73-41.74c-6.88-6.88-16.02-10.67-25.74-10.67s-18.86,3.79-25.74,10.66c-6.88,6.88-10.66,16.02-10.66,25.74s3.79,18.86,10.66,25.74l67.46,67.48c6.88,6.88,16.02,10.66,25.74,10.66s18.96-3.89,25.74-10.66l168.67-168.67c14.19-14.19,14.19-37.28,0-51.48Z" fill="#fff"/></g></svg>