<?xml version="1.0" encoding="UTF-8"?><svg id="Layer_2" xmlns="http://www.w3.org/2000/svg" xmlns:xlink="http://www.w3.org/1999/xlink" viewBox="0 0 1052 1052"><defs><linearGradient id="linear-gradient" x1="526" y1="1052" x2="526" y2="0" gradientTransform="matrix(1, 0, 0, 1, 0, 0)" gradientUnits="userSpaceOnUse"><stop offset="0" stop-color="#75c7ff"/><stop offset="1" stop-color="#1775b9"/></linearGradient></defs><g id="Layer_1-2"><rect width="1052" height="1052" rx="174.24" ry="174.24" fill="url(#linear-gradient)"/><path d="M737.2,922.02H314.8c-53.39,0-96.8-43.42-96.8-96.8V332.39c0-53.37,43.42-96.8,96.8-96.8h88c14.58,0,26.4,11.83,26.4,26.4s-11.83,26.4-26.4,26.4h-88c-24.27,0-44,19.73-44,44v492.83c0,24.27,19.73,44,44,44h422.39c24.27,0,44-19.73,44-44V332.39c0-24.27-19.73-44-44-44h-88c-14.58,0-26.4-11.83-26.4-26.4s11.83-26.4,26.4-26.4h88c53.39,0,96.8,43.43,96.8,96.8v492.83c0,53.39-43.42,96.8-96.8,96.8Z" fill="#fff"/><path d="M645.69,393.99h-239.38c-26.19,0-47.51-21.31-47.51-47.51v-66.9c0-22.28,16.64-40.74,38.14-43.61,13.17-66.47,61.14-106,129.06-106s115.9,39.53,129.06,106c21.48,2.87,38.12,21.33,38.12,43.61v66.9c0,26.19-21.31,47.51-47.51,47.51Zm-234.08-52.8h228.79v-53.68c-18.43-3.68-33.21-18.73-36.61-38.48-7.63-43.93-33.83-66.24-77.78-66.24s-70.13,22.31-77.79,66.28c-3.44,19.73-18.2,34.77-36.61,38.45v53.68Z" fill="#fff"/><path d="M475.41,724.74h0c-7.01,0-13.72-2.78-18.67-7.73l-67.46-67.48c-10.31-10.31-10.31-27.02,0-37.33,10.31-10.31,27.02-10.31,37.33,0l48.8,48.81,150-150c10.31-10.31,27.02-10.31,37.33,0,10.31,10.31,10.31,27.02,0,37.33l-168.67,168.67c-4.95,4.95-11.67,7.73-18.67,7.73Z" fill="#fff"/></g></svg>