<?xml version="1.0" encoding="UTF-8"?><svg id="Layer_2" xmlns="http://www.w3.org/2000/svg" viewBox="0 0 755.02 964"><g id="Layer_1-2"><path d="M628.23,125.37h-104.47c-23.83,0-43.21,19.38-43.21,43.21s19.39,43.21,43.21,43.21h104.47c22.26,0,40.36,18.11,40.36,40.36V837.21c0,22.26-18.11,40.36-40.36,40.36H126.79c-22.26,0-40.36-18.11-40.36-40.36V252.15c0-22.26,18.11-40.36,40.36-40.36h104.47c23.83,0,43.21-19.38,43.21-43.21s-19.39-43.21-43.21-43.21H126.79C56.88,125.37,0,182.24,0,252.15V837.21c0,69.91,56.88,126.79,126.79,126.79h501.44c69.91,0,126.79-56.88,126.79-126.79V252.15c0-69.91-56.88-126.79-126.79-126.79Z" fill="#fff"/><path d="M540.7,127.64C521.76,47.54,461.29,0,377.52,0S233.28,47.53,214.34,127.64c-27.42,7.51-47.19,32.74-47.19,61.83v79.41c0,37.64,30.63,68.27,68.27,68.27h284.17c37.64,0,68.27-30.63,68.27-68.27v-79.41c0-29.1-19.76-54.32-47.17-61.83Zm-39.26,80.19v42.9H253.58v-42.87c22.42-8.1,38.98-27.85,43.29-52.59,8.08-46.33,34.46-68.85,80.66-68.85s72.59,22.5,80.63,68.78c4.2,24.35,21.08,44.45,43.29,52.62Z" fill="#fff"/><path d="M548.23,455.8c-16.85-16.85-44.26-16.84-61.11,0l-169.67,169.67-49.54-49.55c-8.16-8.17-19.01-12.66-30.55-12.66s-22.39,4.5-30.55,12.66c-8.16,8.16-12.66,19.01-12.66,30.55s4.5,22.39,12.66,30.55l80.09,80.11c8.16,8.16,19.02,12.66,30.55,12.66s22.51-4.61,30.55-12.66l200.23-200.23c16.85-16.85,16.85-44.26,0-61.11Z" fill="#fff"/></g></svg>