<?xml version="1.0" standalone="no"?>
<!DOCTYPE svg PUBLIC "-//W3C//DTD SVG 20010904//EN"
 "http://www.w3.org/TR/2001/REC-SVG-20010904/DTD/svg10.dtd">
<svg version="1.0" xmlns="http://www.w3.org/2000/svg"
 width="1080.000000pt" height="1080.000000pt" viewBox="0 0 1080.000000 1080.000000"
 preserveAspectRatio="xMidYMid meet">
<metadata>
Created by potrace 1.14, written by Peter Selinger 2001-2017
</metadata>
<g transform="translate(0.000000,1080.000000) scale(0.100000,-0.100000)"
fill="#000000" stroke="none">
<path d="M5219 10216 c-2 -2 -31 -6 -64 -10 -322 -34 -650 -173 -874 -371
-171 -152 -314 -349 -402 -555 -38 -89 -100 -268 -102 -292 -1 -10 -8 -18 -17
-18 -8 -1 -226 -1 -485 -2 -258 0 -495 -4 -525 -8 -125 -18 -148 -23 -247 -55
-478 -157 -815 -569 -871 -1065 -9 -82 -9 -6052 0 -6140 4 -36 9 -72 12 -80 3
-8 8 -26 10 -40 11 -54 16 -76 37 -139 23 -71 102 -236 125 -262 8 -8 14 -19
14 -23 0 -14 127 -170 177 -216 198 -186 383 -281 673 -346 19 -5 1230 -9
2690 -11 2888 -2 2726 -5 2911 53 335 105 610 340 764 652 39 81 88 214 99
272 3 14 11 52 18 85 10 48 12 674 13 3100 0 1672 -3 3069 -8 3105 -61 533
-459 968 -1000 1092 -94 21 -145 22 -1120 28 -10 0 -19 6 -21 13 -67 219 -136
384 -213 505 -172 272 -420 483 -703 599 -82 34 -225 79 -279 88 -19 3 -37 7
-40 9 -3 2 -30 7 -60 11 -30 4 -63 9 -75 12 -25 6 -431 15 -437 9z m329 -871
c196 -21 377 -114 481 -250 83 -107 127 -212 171 -405 40 -173 88 -274 177
-370 68 -73 137 -125 213 -159 l45 -20 1 -213 1 -213 -1231 1 c-677 1 -1234 2
-1237 3 -3 0 -6 95 -6 210 l0 209 41 19 c200 90 347 279 390 503 19 101 28
134 52 200 83 232 201 354 439 452 31 12 123 29 195 35 36 3 66 6 68 8 4 4
130 -2 200 -10z m-2252 -1580 c1 -307 2 -335 22 -408 70 -250 259 -433 509
-492 61 -15 224 -17 1568 -17 825 0 1516 3 1535 7 154 27 263 86 381 206 56
56 88 99 117 158 68 136 76 189 76 559 l1 323 245 -4 c135 -2 255 -6 268 -10
50 -13 130 -64 174 -109 58 -59 92 -124 108 -203 8 -44 10 -845 8 -3040 l-3
-2980 -26 -59 c-55 -122 -166 -214 -291 -239 -50 -10 -593 -13 -2613 -11
-2265 1 -2555 3 -2597 17 -139 44 -246 160 -278 299 -14 64 -14 5950 1 6020
31 145 155 273 296 307 21 5 141 8 268 8 l230 -2 1 -330z"/>
<path d="M6676 5770 c-30 -10 -75 -29 -99 -43 -26 -15 -412 -394 -912 -893
l-867 -867 -271 270 c-153 152 -292 282 -317 296 -146 82 -345 69 -470 -32
-70 -57 -95 -87 -129 -155 -60 -122 -60 -258 0 -383 26 -54 87 -119 479 -511
396 -398 456 -454 513 -482 85 -42 186 -57 269 -42 146 27 90 -24 1220 1106
568 568 1042 1044 1054 1058 30 36 61 105 77 173 62 272 -155 534 -434 524
-31 -1 -82 -10 -113 -19z"/>
</g>
</svg>
