<?xml version="1.0" encoding="UTF-8"?>
<svg xmlns="http://www.w3.org/2000/svg" viewBox="0 0 512 512" fill="currentColor">
  <path d="M237,0h38c19.65,6.46,28.25,18.3,28.26,39.03,.01,53.98,0,107.96,0,161.95q0,7.74,7.77,7.76c53.98,0,107.96,0,161.95,0,20.74,0,32.37,8.45,39.02,28.26v38c-6.73,19.98-18.28,28.25-39.53,28.26-53.81,0-107.63,0-161.44,0q-7.75,0-7.77,7.76c0,53.98,0,107.96,0,161.94,0,20.72-8.58,32.53-28.26,39.04h-38c-19.68-6.49-28.26-18.31-28.26-39.04-.01-53.98,0-107.96,0-161.94q0-7.75-7.77-7.76c-53.98,0-107.96,0-161.94,0-20.72,0-32.45-8.52-39.03-28.26v-38c6.54-19.72,18.3-28.25,39.02-28.26,53.98-.01,107.96,0,161.94,0q7.75,0,7.76-7.77c0-53.98,0-107.96,0-161.94,0-20.71,8.64-32.6,28.26-39.02Z"/>
</svg>