<?xml version="1.0" encoding="UTF-8"?><svg id="Layer_2" xmlns="http://www.w3.org/2000/svg" viewBox="0 0 511.36 510.52"><g id="Layer_1-2"><g id="fl0lp5.tif"><g><path d="M49.26,510.52c-17.6-4.92-31.37-14.93-40.73-30.75C3.01,470.43,.01,460.36,.01,449.43c.01-100.63-.06-201.25,.05-301.88,.04-32.85,28.45-62.08,61.27-62.32,57.71-.41,115.43-.18,173.14-.09,12.73,.02,21.87,9.73,21.72,22.42-.15,11.98-9.44,21.02-21.95,21.03-55.55,.05-111.1,.04-166.66,.02-9.9,0-17.95,3.11-22.28,12.77-1.24,2.77-1.77,5.67-1.77,8.72,.02,98.96,0,197.92,.05,296.89,0,12.57,8.8,21.31,21.44,21.32,98.8,.05,197.59,.05,296.39,0,12.94,0,21.61-8.82,21.81-22.19,.19-12.64,.05-25.28,.05-37.92,0-43.58-.02-87.15,.02-130.73,0-9.68,5.68-17.75,14.29-20.72,8.86-3.06,18.37-.38,24.32,6.91,3.28,4.01,4.88,8.66,4.88,13.83,0,57.55,.21,115.1-.11,172.64-.15,26.01-18.7,50.1-43.86,58.6-1.73,.58-3.45,1.19-5.17,1.78H49.26Z"/><path d="M511.36,63.4c-3.08,14.05-11.03,25-21.45,34.57-7.1,6.52-13.78,13.5-20.47,20.44-2.41,2.5-4.02,2.49-6.49,0-23.09-23.24-46.25-46.4-69.49-69.49-2.46-2.44-2.53-4.05-.03-6.49,9.05-8.82,17.81-17.94,26.88-26.73C450.53-13.57,499.39-.02,510.29,40.6c.34,1.28,.72,2.55,1.07,3.83v18.96Z"/><path d="M194.45,330.28c-9.78,.29-14.42-5.86-12.53-15.47,4.02-20.37,8.65-40.64,12.01-61.11,1.77-10.81,6.72-18.7,14.37-26.28,51.98-51.49,103.6-103.34,155.34-155.08q4.88-4.88,9.63-.16c22.35,22.34,44.62,44.75,67.1,66.95,3.44,3.4,3.37,5.43-.03,8.79-30.38,30.05-60.65,60.22-90.87,90.43-22.46,22.45-44.95,44.88-67.13,67.61-6.22,6.38-13.14,9.9-21.92,11.44-20.61,3.61-41.07,8.04-61.6,12.12-1.79,.36-3.59,.62-4.37,.76Z"/></g></g></g></svg>