<?xml version="1.0" encoding="UTF-8"?>
<svg id="Layer_2"
  xmlns="http://www.w3.org/2000/svg" viewBox="0 0 17.5 22.5" stroke="currentColor">
  <path d="M5.25,3.75H2.75c-1.1,0-2,.9-2,2v14c0,1.1,.9,2,2,2H14.75c1.1,0,2-.9,2-2V5.75c0-1.1-.9-2-2-2h-2.5" fill="none" stroke-linecap="round" stroke-width="1.5"/>
  <path d="M4.75,6.15v-1.9c0-.28,.22-.5,.5-.5s.5-.22,.55-.5c.15-.85,.72-2.5,2.95-2.5s2.8,1.65,2.95,2.5c.05,.27,.28,.5,.55,.5s.5,.22,.5,.5v1.9c0,.33-.27,.6-.6,.6H5.35c-.33,0-.6-.27-.6-.6Z" fill="none" stroke-linecap="round" stroke-width="1.5"/>
  <path d="M5.4,14.23l1.92,1.92,4.79-4.79" fill="none" stroke-linecap="round" stroke-linejoin="round" stroke-width="1.5"/>
</svg>